<svg xmlns="http://www.w3.org/2000/svg" width="863" height="550" viewBox="0 0 863 550">
    <g fill="none" fill-rule="evenodd" opacity=".6">
        <path fill="#CAD400" d="M566.237 347L755 285.728l-.237-.728L566 346.29zM784.264 429l.736-.17L755.72 285l-.72.152z"/>
        <path fill="#CAD400" d="M784.73 429l.27-.691L567.27 346l-.27.708zM574.186 481L785 429.732l-.186-.732L574 480.268z"/>
        <path fill="#CAD400" d="M575.556 480L756 285.507l-.556-.507L575 479.493zM574.265 480l.735-.034L567.735 347l-.735.05zM784.727 429L856 197.236l-.727-.236L784 428.764z"/>
        <path fill="#CAD400" d="M755.489 286L856 197.574l-.489-.574L755 285.442z"/>
        <path fill="#CAD400" d="M784.727 429L856 197.236l-.727-.236L784 428.764z"/>
        <path fill="#CAD400" d="M755.489 286L856 197.574l-.489-.574L755 285.442zM785.709 429L858 194.202l-.709-.202L785 428.764z"/>
        <path fill="#CAD400" d="M855.898 198l.102-.758L688.102 175l-.102.74z"/>
        <path fill="#CAD400" d="M855.898 198l.102-.758L688.102 175l-.102.74z"/>
        <path fill="#CAD400" d="M784.291 429l.709-.27L688.709 175l-.709.27zM755.362 286l.638-.388L689.638 175l-.638.371z"/>
        <path fill="#CAD400" d="M567.624 347L689 175.438l-.607-.438L567 346.579z"/>
        <path fill="#CAD400" d="M415.27 280L689 175.71l-.27-.71L415 279.29z"/>
        <path fill="#CAD400" d="M574.41 480l.59-.455L415.59 279l-.59.472z"/>
        <path fill="#CAD400" d="M566.695 347l.305-.69L414.305 279l-.305.69zM689.655 175L785 6.372 784.345 6 689 174.628z"/>
        <path fill="#CAD400" d="M857.287 194l.713-.287L784.713 6l-.713.27z"/>
        <path fill="#CAD400" d="M755.765 286L785 7.067 784.252 7 755 285.916zM533.236 91L784 6.706 783.764 6 533 90.294zM415.64 279L534 91.405l-.64-.405L415 278.612zM688.646 175l.354-.656L534.37 91l-.37.656z"/>
        <path fill="#CAD400" d="M755.51 286l.49-.557L534.49 91l-.49.557zM566.262 346l.738-.101L533.738 91l-.738.101zM295.287 330L415 279.69l-.304-.69L295 329.31z"/>
        <path fill="#CAD400" d="M566.966 347l.034-.75L295.034 329l-.034.766z"/>
        <path fill="#CAD400" d="M362.307 493l.693-.287L295.71 329l-.71.303z"/>
        <path fill="#CAD400" d="M362.722 494L415 279.186l-.722-.186L362 493.814z"/>
        <path fill="#CAD400" d="M363.05 493L575 479.744l-.05-.744L363 492.256z"/>
        <path fill="#CAD400" d="M362.439 493L567 346.606l-.439-.606L362 492.394zM696.662 543l.338-.674L574.355 480l-.355.674zM697.59 543L785 429.457l-.59-.457L697 542.543z"/>
        <path fill="#CAD400" d="M697.728 542L756 285.169l-.728-.169L697 541.831zM696.374 542l.626-.405L566.626 346l-.626.405zM362.294 493l.706-.27L276.69 271l-.69.27zM294.296 329l.704-.235L275.704 271l-.704.235z"/>
        <path fill="#CAD400" d="M414.95 279l.05-.729L276.034 271l-.034.729zM92.304 351L276 271.692l-.304-.692L92 350.308z"/>
        <path fill="#CAD400" d="M92.068 351L295 329.758l-.068-.758L92 350.242z"/>
        <path fill="#CAD400" d="M200.612 416l.388-.643L92.388 350l-.388.643z"/>
        <path fill="#CAD400" d="M200.68 416L276 271.338l-.68-.338L200 415.662zM361.662 494l.338-.674L200.338 416l-.338.674z"/>
        <path fill="#CAD400" d="M200.508 416L295 329.557l-.508-.557L200 415.46zM200.406 417L415 279.627l-.406-.627L200 416.357zM276.472 272L498 88.574l-.489-.574L276 271.41zM533.933 92l.067-.756L498.067 88l-.067.74zM497.203 88L784 6.724 783.797 6 497 87.276z"/>
        <path fill="#CAD400" d="M415.69 279L498 88.286l-.69-.286L415 278.697zM688.68 176l.32-.678L498.32 88l-.32.695z"/>
        <path fill="#CAD400" d="M566.277 347l.723-.203L497.723 88l-.723.186z"/>
        <path fill="#CAD400" d="M276.472 272L498 88.574l-.489-.574L276 271.41zM533.933 92l.067-.756L498.067 88l-.067.74zM497.203 88L784 6.724 783.797 6 497 87.276z"/>
        <path fill="#CAD400" d="M415.69 279L498 88.286l-.69-.286L415 278.697zM688.68 176l.32-.678L498.32 88l-.32.695z"/>
        <path fill="#CAD400" d="M566.277 347l.723-.203L497.723 88l-.723.186zM200.342 416l.658-.338L127.658 280l-.658.355zM91.677 351L127 280.34l-.677-.34L91 350.66z"/>
        <path fill="#CAD400" d="M127.034 281L275 271.765l-.05-.765L127 280.235z"/>
        <path fill="#CAD400" d="M294.797 330l.203-.731L127.22 280l-.22.731z"/>
        <path fill="#CAD400" d="M127 281l288-1.353V279l-288 1.353zM584.344 248l.656-.355L497.656 88l-.656.372z"/>
        <path fill="#CAD400" d="M584.344 248l.656-.355L497.656 88l-.656.372z"/>
        <path fill="#CAD400" d="M584.294 247l.706-.236L533.706 91l-.706.22zM415.135 280L585 247.751l-.135-.751L415 279.249zM585.44 248L689 175.608l-.44-.608L585 247.392z"/>
        <path fill="#CAD400" d="M585.135 248L856 197.73l-.135-.73L585 247.253z"/>
        <path fill="#CAD400" d="M585.135 248L856 197.73l-.135-.73L585 247.253zM574.741 480L585 247.034l-.725-.034L574 479.966z"/>
        <path fill="#CAD400" d="M784.494 429l.506-.556L585.506 247l-.506.572z"/>
        <path fill="#CAD400" d="M754.832 286l.168-.724L585.168 247l-.168.741zM566.752 347L585 247.136l-.752-.136L566 346.864z"/>
        <path fill="#CAD400" d="M422.507 396L585 247.575l-.507-.575L422 395.442z"/>
        <path fill="#CAD400" d="M201.067 416L423 395.744l-.067-.744L201 415.272zM422.51 395l.49-.572L275.49 271l-.49.572z"/>
        <path fill="#CAD400" d="M362.64 494L423 395.407l-.64-.407L362 493.61zM422.646 395l.354-.654L295.337 329l-.337.654z"/>
        <path fill="#CAD400" d="M422.24 395l.76-.067L414.777 279l-.777.05zM574.646 480l.354-.656L423.371 395l-.371.656zM423.236 395L567 346.703l-.236-.703L423 394.28zM803.797 307l.203-.729L585.203 247l-.203.729z"/>
        <path fill="#CAD400" d="M697.691 542L804 306.303l-.674-.303L697 541.68z"/>
        <path fill="#CAD400" d="M803.259 307l.741-.05L784.758 7l-.758.05z"/>
        <path fill="#CAD400" d="M803.424 307l.576-.49L688.576 175l-.576.507z"/>
        <path fill="#CAD400" d="M803.69 306L856 197.32l-.674-.32L803 305.664z"/>
        <path fill="#CAD400" d="M803.69 306L856 197.32l-.674-.32L803 305.664zM574.457 480L804 306.59l-.44-.59L574 479.41z"/>
        <path fill="#CAD400" d="M784.761 429L804 306.118l-.761-.118L784 428.882zM803.694 306l.306-.68L755.306 285l-.306.68z"/>
        <path fill="#CAD400" d="M567.118 347L804 306.74l-.118-.74L567 346.26zM468.369 460l.631-.441L422.631 395l-.631.424z"/>
        <path fill="#CAD400" d="M468.658 460L585 247.355l-.675-.355L468 459.645z"/>
        <path fill="#CAD400" d="M468.882 460l.118-.738L201.118 416l-.118.738z"/>
        <path fill="#CAD400" d="M468.476 460l.524-.541L275.524 271l-.524.524z"/>
        <path fill="#CAD400" d="M696.746 542l.254-.705L468.254 459l-.254.705z"/>
        <path fill="#CAD400" d="M362.237 494L469 459.717l-.22-.717L362 493.266z"/>
        <path fill="#CAD400" d="M468.545 460l.455-.61L295.455 329l-.455.593z"/>
        <path fill="#CAD400" d="M468.286 460l.714-.22L414.73 279l-.73.22zM574.848 480l.152-.74L469.135 459l-.135.74z"/>
        <path fill="#CAD400" d="M468.575 459L567 346.504l-.575-.504L468 458.512zM488.26 537l.74-.201L468.74 459l-.74.168z"/>
        <path fill="#CAD400" d="M488.313 538l.687-.321L423.67 395l-.67.321z"/>
        <path d="M697 537H488v12h209z"/>
        <path fill="#CAD400" d="M696.983 542l.017-.714L488.017 537l-.017.73z"/>
        <path fill="#CAD400" d="M488.746 538l.254-.707L362.254 493l-.254.707z"/>
        <path fill="#CAD400" d="M488.443 538l.557-.507L295.54 329l-.54.507z"/>
        <path fill="#CAD400" d="M488.27 538l.73-.203L414.73 279l-.73.203zM489.42 539L575 480.629l-.42-.629L489 538.371z"/>
        <path fill="#CAD400" d="M488.691 537L567 346.286l-.691-.286L488 536.697zM182.22 550L469 459.712l-.22-.712L182 549.288z"/>
        <path fill="#CAD400" d="M181.406 550L423 395.625l-.406-.625L181 549.358z"/>
        <path fill="#CAD400" d="M181.258 550l.742-.152L127.725 281l-.725.152z"/>
        <path fill="#CAD400" d="M181.748 550L201 416.118l-.748-.118L181 549.882z"/>
        <path fill="#CAD400" d="M181.326 550l.674-.32L92.674 351l-.674.304z"/>
        <path fill="#CAD400" d="M181.712 549L276 271.22l-.712-.22L181 548.747zM181.22 550L362 493.729l-.237-.729L181 549.288z"/>
        <path fill="#CAD400" d="M181.675 549L295 329.354l-.658-.354L181 548.646zM181.644 550l.356-.676L.356 453l-.356.66z"/>
        <path d="M127 280H0v173h127z"/>
        <path fill="#CAD400" d="M.606 453L127 280.455l-.606-.455L0 452.562zM1.135 454L201 416.741l-.135-.741L1 453.275z"/>
        <path fill="#CAD400" d="M.556 454L92 351.506l-.556-.506L0 453.51z"/>
        <path fill="#CAD400" d="M181.644 550l.356-.676L.356 453l-.356.66z"/>
        <path d="M127 280H0v173h127z"/>
        <path fill="#CAD400" d="M.606 453L127 280.455l-.606-.455L0 452.562zM1.135 454L201 416.741l-.135-.741L1 453.275z"/>
        <path fill="#CAD400" d="M.556 454L92 351.506l-.556-.506L0 453.51zM566.237 347L755 285.728l-.237-.728L566 346.29zM784.264 429l.736-.17L755.72 285l-.72.152z"/>
        <path fill="#CAD400" d="M784.73 429l.27-.691L567.27 346l-.27.708zM574.186 481L785 429.732l-.186-.732L574 480.268z"/>
        <path fill="#CAD400" d="M575.556 480L756 285.507l-.556-.507L575 479.493zM574.265 480l.735-.034L567.735 347l-.735.05zM784.727 429L856 197.236l-.727-.236L784 428.764z"/>
        <path fill="#CAD400" d="M855.898 198l.102-.758L688.102 175l-.102.74z"/>
        <path fill="#CAD400" d="M784.291 429l.709-.27L688.709 175l-.709.27zM755.362 286l.638-.388L689.638 175l-.638.371z"/>
        <path fill="#CAD400" d="M567.624 347L689 175.438l-.607-.438L567 346.579z"/>
        <path fill="#CAD400" d="M415.27 280L689 175.71l-.27-.71L415 279.29z"/>
        <path fill="#CAD400" d="M574.41 480l.59-.455L415.59 279l-.59.472z"/>
        <path fill="#CAD400" d="M566.695 347l.305-.69L414.305 279l-.305.69zM689.655 175L785 6.372 784.345 6 689 174.628z"/>
        <path fill="#CAD400" d="M857.287 194l.713-.287L784.713 6l-.713.27z"/>
        <path fill="#CAD400" d="M755.765 286L785 7.067 784.252 7 755 285.916zM533.236 91L784 6.706 783.764 6 533 90.294zM415.64 279L534 91.405l-.64-.405L415 278.612zM688.646 175l.354-.656L534.37 91l-.37.656z"/>
        <path fill="#CAD400" d="M755.51 286l.49-.557L534.49 91l-.49.557zM566.262 346l.738-.101L533.738 91l-.738.101zM295.287 330L415 279.69l-.304-.69L295 329.31z"/>
        <path fill="#CAD400" d="M566.966 347l.034-.75L295.034 329l-.034.766z"/>
        <path fill="#CAD400" d="M362.307 493l.693-.287L295.71 329l-.71.303z"/>
        <path fill="#CAD400" d="M362.722 494L415 279.186l-.722-.186L362 493.814z"/>
        <path fill="#CAD400" d="M363.05 493L575 479.744l-.05-.744L363 492.256z"/>
        <path fill="#CAD400" d="M362.439 493L567 346.606l-.439-.606L362 492.394zM696.662 543l.338-.674L574.355 480l-.355.674zM697.59 543L785 429.457l-.59-.457L697 542.543z"/>
        <path fill="#CAD400" d="M697.728 542L756 285.169l-.728-.169L697 541.831zM696.374 542l.626-.405L566.626 346l-.626.405zM362.294 493l.706-.27L276.69 271l-.69.27zM294.296 329l.704-.235L275.704 271l-.704.235z"/>
        <path fill="#CAD400" d="M414.95 279l.05-.729L276.034 271l-.034.729zM92.304 351L276 271.692l-.304-.692L92 350.308z"/>
        <path fill="#CAD400" d="M92.068 351L295 329.758l-.068-.758L92 350.242z"/>
        <path fill="#CAD400" d="M200.612 416l.388-.643L92.388 350l-.388.643z"/>
        <path fill="#CAD400" d="M200.68 416L276 271.338l-.68-.338L200 415.662zM361.662 494l.338-.674L200.338 416l-.338.674z"/>
        <path fill="#CAD400" d="M200.508 416L295 329.557l-.508-.557L200 415.46zM200.406 417L415 279.627l-.406-.627L200 416.357zM276.472 272L498 88.574l-.489-.574L276 271.41zM533.933 92l.067-.756L498.067 88l-.067.74zM497.203 88L784 6.724 783.797 6 497 87.276z"/>
        <path fill="#CAD400" d="M415.69 279L498 88.286l-.69-.286L415 278.697zM688.68 176l.32-.678L498.32 88l-.32.695z"/>
        <path fill="#CAD400" d="M566.277 347l.723-.203L497.723 88l-.723.186z"/>
        <path fill="#CAD400" d="M276.472 272L498 88.574l-.489-.574L276 271.41zM533.933 92l.067-.756L498.067 88l-.067.74zM497.203 88L784 6.724 783.797 6 497 87.276z"/>
        <path fill="#CAD400" d="M415.69 279L498 88.286l-.69-.286L415 278.697zM688.68 176l.32-.678L498.32 88l-.32.695z"/>
        <path fill="#CAD400" d="M566.277 347l.723-.203L497.723 88l-.723.186zM200.342 416l.658-.338L127.658 280l-.658.355zM91.677 351L127 280.34l-.677-.34L91 350.66z"/>
        <path fill="#CAD400" d="M127.034 281L275 271.765l-.05-.765L127 280.235z"/>
        <path fill="#CAD400" d="M294.797 330l.203-.731L127.22 280l-.22.731z"/>
        <path fill="#CAD400" d="M127 281l288-1.353V279l-288 1.353zM584.344 248l.656-.355L497.656 88l-.656.372z"/>
        <path fill="#CAD400" d="M584.344 248l.656-.355L497.656 88l-.656.372z"/>
        <path fill="#CAD400" d="M584.294 247l.706-.236L533.706 91l-.706.22zM415.135 280L585 247.751l-.135-.751L415 279.249zM585.44 248L689 175.608l-.44-.608L585 247.392z"/>
        <path fill="#CAD400" d="M585.135 248L856 197.73l-.135-.73L585 247.253zM574.741 480L585 247.034l-.725-.034L574 479.966z"/>
        <path fill="#CAD400" d="M784.494 429l.506-.556L585.506 247l-.506.572z"/>
        <path fill="#CAD400" d="M754.832 286l.168-.724L585.168 247l-.168.741zM566.752 347L585 247.136l-.752-.136L566 346.864z"/>
        <path fill="#CAD400" d="M422.507 396L585 247.575l-.507-.575L422 395.442z"/>
        <path fill="#CAD400" d="M201.067 416L423 395.744l-.067-.744L201 415.272zM422.51 395l.49-.572L275.49 271l-.49.572z"/>
        <path fill="#CAD400" d="M362.64 494L423 395.407l-.64-.407L362 493.61zM422.646 395l.354-.654L295.337 329l-.337.654z"/>
        <path fill="#CAD400" d="M422.24 395l.76-.067L414.777 279l-.777.05zM574.646 480l.354-.656L423.371 395l-.371.656zM423.236 395L567 346.703l-.236-.703L423 394.28zM803.797 307l.203-.729L585.203 247l-.203.729z"/>
        <path fill="#CAD400" d="M697.691 542L804 306.303l-.674-.303L697 541.68z"/>
        <path fill="#CAD400" d="M803.259 307l.741-.05L784.758 7l-.758.05z"/>
        <path fill="#CAD400" d="M803.424 307l.576-.49L688.576 175l-.576.507z"/>
        <path fill="#CAD400" d="M803.69 306L856 197.32l-.674-.32L803 305.664zM574.457 480L804 306.59l-.44-.59L574 479.41z"/>
        <path fill="#CAD400" d="M784.761 429L804 306.118l-.761-.118L784 428.882zM803.694 306l.306-.68L755.306 285l-.306.68z"/>
        <path fill="#CAD400" d="M567.118 347L804 306.74l-.118-.74L567 346.26zM468.369 460l.631-.441L422.631 395l-.631.424z"/>
        <path fill="#CAD400" d="M468.658 460L585 247.355l-.675-.355L468 459.645z"/>
        <path fill="#CAD400" d="M468.882 460l.118-.738L201.118 416l-.118.738z"/>
        <path fill="#CAD400" d="M468.476 460l.524-.541L275.524 271l-.524.524z"/>
        <path fill="#CAD400" d="M696.746 542l.254-.705L468.254 459l-.254.705z"/>
        <path fill="#CAD400" d="M362.237 494L469 459.717l-.22-.717L362 493.266z"/>
        <path fill="#CAD400" d="M468.545 460l.455-.61L295.455 329l-.455.593z"/>
        <path fill="#CAD400" d="M468.286 460l.714-.22L414.73 279l-.73.22zM574.848 480l.152-.74L469.135 459l-.135.74z"/>
        <path fill="#CAD400" d="M468.575 459L567 346.504l-.575-.504L468 458.512zM488.26 537l.74-.201L468.74 459l-.74.168z"/>
        <path fill="#CAD400" d="M488.313 538l.687-.321L423.67 395l-.67.321z"/>
        <path d="M697 537H488v12h209z"/>
        <path fill="#CAD400" d="M696.983 542l.017-.714L488.017 537l-.017.73z"/>
        <path fill="#CAD400" d="M488.746 538l.254-.707L362.254 493l-.254.707z"/>
        <path fill="#CAD400" d="M488.443 538l.557-.507L295.54 329l-.54.507z"/>
        <path fill="#CAD400" d="M488.27 538l.73-.203L414.73 279l-.73.203zM489.42 539L575 480.629l-.42-.629L489 538.371z"/>
        <path fill="#CAD400" d="M488.691 537L567 346.286l-.691-.286L488 536.697zM182.22 550L469 459.712l-.22-.712L182 549.288z"/>
        <path fill="#CAD400" d="M181.406 550L423 395.625l-.406-.625L181 549.358z"/>
        <path fill="#CAD400" d="M181.258 550l.742-.152L127.725 281l-.725.152z"/>
        <path fill="#CAD400" d="M181.748 550L201 416.118l-.748-.118L181 549.882z"/>
        <path fill="#CAD400" d="M181.326 550l.674-.32L92.674 351l-.674.304z"/>
        <path fill="#CAD400" d="M181.712 549L276 271.22l-.712-.22L181 548.747zM181.22 550L362 493.729l-.237-.729L181 549.288z"/>
        <path fill="#CAD400" d="M181.675 549L295 329.354l-.658-.354L181 548.646zM181.644 550l.356-.676L.356 453l-.356.66zM.606 453L127 280.455l-.606-.455L0 452.562z"/>
        <path fill="#CAD400" d="M1.135 454L201 416.741l-.135-.741L1 453.275z"/>
        <path fill="#CAD400" d="M.556 454L92 351.506l-.556-.506L0 453.51z"/>
        <path fill="#CAD400" d="M181.644 550l.356-.676L.356 453l-.356.66zM.606 453L127 280.455l-.606-.455L0 452.562z"/>
        <path fill="#CAD400" d="M1.135 454L201 416.741l-.135-.741L1 453.275z"/>
        <path fill="#CAD400" d="M.556 454L92 351.506l-.556-.506L0 453.51z"/>
    </g>
</svg>
